<svg width="1204" height="159" viewBox="0 0 1204 159" fill="none" xmlns="http://www.w3.org/2000/svg">
<g clip-path="url(#clip0_3_16)">
<path d="M272.469 158.29L451 0.289963H387.691L209.16 158.29H272.469Z" fill="#F6F6F6"/>
<path d="M165.507 158.29L344.038 0.289963H304.91L126.382 158.29H165.507Z" fill="#F6F6F6"/>
<path d="M82.7267 158.29L261.258 0.289963H237.074L58.5399 158.29H82.7267Z" fill="#F6F6F6"/>
<path d="M14.944 158.29L193.475 0.289963H178.528L0 158.29H14.944Z" fill="#F6F6F6"/>
</g>
<g clip-path="url(#clip1_3_16)">
<path d="M483.443 0H590.719C609.047 0 623.727 3.80708 634.764 11.417C645.801 19.0311 651.318 31.1797 651.318 47.8628C651.318 65.856 644.478 78.8766 630.793 86.9332C635.599 89.4556 639.204 92.3652 641.604 95.6618C644.005 98.9584 645.554 102.217 646.248 105.428C646.938 108.644 647.41 112.409 647.653 116.722L647.895 120.384L651.075 157.992H618.573L615.397 122.584C614.827 116.318 612.771 111.494 609.226 108.112C605.684 104.735 601.283 102.476 596.031 101.336C590.778 100.196 584.525 99.6263 577.277 99.6263H515.941V157.992H483.443V0ZM590.719 74.2358C599.593 74.2358 606.501 72.0792 611.426 67.7659C616.355 63.4527 618.82 57.4677 618.82 49.8153C618.82 42.652 616.415 37.1987 611.613 33.4555C606.808 29.7122 599.84 27.8406 590.719 27.8406H515.941V74.2401H590.714L590.719 74.2358Z" fill="#F6F6F6"/>
<path d="M834.711 0V27.1047H713.019V67.2768H830.659L826.483 92.9182H713.019V130.891H834.954V157.996H680.517V0H834.707H834.711Z" fill="#F6F6F6"/>
<path d="M997.989 5.73826C1007.68 9.72825 1015.15 15.8323 1020.41 24.0548C1025.66 32.2772 1028.29 42.4138 1028.29 54.4561C1028.29 71.875 1022.68 84.9424 1011.49 93.6498C1000.29 102.361 984.708 106.713 964.754 106.713H899.264V157.996H866.766V0H964.754C977.298 0 988.373 1.91417 997.989 5.73826ZM967.687 80.8291C976.319 80.8291 983.163 78.4896 988.212 73.8105C993.264 69.1314 995.788 62.6785 995.788 54.4561C995.788 46.2336 993.302 39.4362 988.335 34.7996C983.368 30.1588 976.485 27.8406 967.687 27.8406H899.264V80.8334H967.687V80.8291Z" fill="#F6F6F6"/>
<path d="M1045.34 130.891L1162.05 27.8363H1049.04V0.365814H1203.44V27.8406L1090.13 130.895H1203.44L1199.04 158H1045.34V130.895V130.891Z" fill="#F6F6F6"/>
</g>
<defs>
<clipPath id="clip0_3_16">
<rect width="451" height="158" fill="white" transform="matrix(-1 0 0 -1 451 158.29)"/>
</clipPath>
<clipPath id="clip1_3_16">
<rect width="720" height="158" fill="white" transform="translate(483.443)"/>
</clipPath>
</defs>
</svg>
